<svg width="71" height="19" viewBox="0 0 71 19" fill="none" xmlns="http://www.w3.org/2000/svg">
<path d="M1.74 15.16C1.36667 15.16 1.08 15.0533 0.88 14.84C0.68 14.6267 0.58 14.3333 0.58 13.96V1.94C0.58 1.55333 0.686667 1.26 0.9 1.06C1.11333 0.846666 1.40667 0.739999 1.78 0.739999C2.11333 0.739999 2.37333 0.806666 2.56 0.94C2.76 1.06 2.94 1.27333 3.1 1.58L8.04 10.72H7.4L12.34 1.58C12.5 1.27333 12.6733 1.06 12.86 0.94C13.0467 0.806666 13.3067 0.739999 13.64 0.739999C14.0133 0.739999 14.3 0.846666 14.5 1.06C14.7 1.26 14.8 1.55333 14.8 1.94V13.96C14.8 14.3333 14.7 14.6267 14.5 14.84C14.3133 15.0533 14.0267 15.16 13.64 15.16C13.2667 15.16 12.98 15.0533 12.78 14.84C12.58 14.6267 12.48 14.3333 12.48 13.96V4.7H12.92L8.72 12.36C8.58667 12.5867 8.44667 12.7533 8.3 12.86C8.15333 12.9667 7.95333 13.02 7.7 13.02C7.44667 13.02 7.24 12.9667 7.08 12.86C6.92 12.74 6.78 12.5733 6.66 12.36L2.42 4.68H2.9V13.96C2.9 14.3333 2.8 14.6267 2.6 14.84C2.41333 15.0533 2.12667 15.16 1.74 15.16ZM20.1433 18.76C19.8499 18.76 19.6099 18.68 19.4233 18.52C19.2366 18.3733 19.1233 18.1733 19.0833 17.92C19.0566 17.6667 19.1033 17.4 19.2233 17.12L20.5833 14.1V15.14L16.9433 6.72C16.8233 6.42667 16.7833 6.15333 16.8233 5.9C16.8633 5.64667 16.9833 5.44667 17.1833 5.3C17.3966 5.14 17.6833 5.06 18.0433 5.06C18.3499 5.06 18.5966 5.13333 18.7833 5.28C18.9699 5.41333 19.1366 5.67333 19.2833 6.06L21.9833 12.8H21.3833L24.1433 6.04C24.2899 5.66667 24.4633 5.41333 24.6633 5.28C24.8633 5.13333 25.1299 5.06 25.4633 5.06C25.7566 5.06 25.9899 5.14 26.1633 5.3C26.3366 5.44667 26.4433 5.64667 26.4833 5.9C26.5233 6.14 26.4766 6.40667 26.3433 6.7L21.4833 17.8C21.3099 18.1733 21.1233 18.4267 20.9233 18.56C20.7233 18.6933 20.4633 18.76 20.1433 18.76ZM34.9906 15.2C33.524 15.2 32.264 14.9067 31.2106 14.32C30.1706 13.72 29.3706 12.88 28.8106 11.8C28.2506 10.7067 27.9706 9.42 27.9706 7.94C27.9706 6.83333 28.1306 5.84 28.4506 4.96C28.7706 4.06667 29.2306 3.30667 29.8306 2.68C30.4306 2.04 31.164 1.55333 32.0306 1.22C32.9106 0.873333 33.8973 0.699999 34.9906 0.699999C35.724 0.699999 36.444 0.793333 37.1506 0.979999C37.8573 1.16667 38.4773 1.43333 39.0106 1.78C39.2906 1.95333 39.4773 2.16667 39.5706 2.42C39.664 2.66 39.684 2.9 39.6306 3.14C39.5773 3.36667 39.464 3.56 39.2906 3.72C39.1306 3.88 38.924 3.97333 38.6706 4C38.4306 4.01333 38.164 3.92667 37.8706 3.74C37.4573 3.47333 37.0106 3.28 36.5306 3.16C36.0506 3.04 35.564 2.98 35.0706 2.98C34.124 2.98 33.324 3.17333 32.6706 3.56C32.0173 3.94667 31.524 4.50667 31.1906 5.24C30.8573 5.97333 30.6906 6.87333 30.6906 7.94C30.6906 8.99333 30.8573 9.89333 31.1906 10.64C31.524 11.3867 32.0173 11.9533 32.6706 12.34C33.324 12.7267 34.124 12.92 35.0706 12.92C35.5773 12.92 36.0773 12.86 36.5706 12.74C37.064 12.6067 37.5306 12.4067 37.9706 12.14C38.264 11.9667 38.524 11.8933 38.7506 11.92C38.9906 11.9333 39.1906 12.0133 39.3506 12.16C39.5106 12.3067 39.6173 12.4933 39.6706 12.72C39.724 12.9333 39.7106 13.16 39.6306 13.4C39.5506 13.6267 39.3906 13.8267 39.1506 14C38.6173 14.3867 37.9773 14.6867 37.2306 14.9C36.4973 15.1 35.7506 15.2 34.9906 15.2ZM43.0244 15.16C42.6244 15.16 42.3177 15.0533 42.1044 14.84C41.891 14.6133 41.7844 14.2933 41.7844 13.88V2C41.7844 1.58667 41.891 1.27333 42.1044 1.06C42.3177 0.846666 42.6244 0.739999 43.0244 0.739999C43.4244 0.739999 43.731 0.846666 43.9444 1.06C44.171 1.27333 44.2844 1.58667 44.2844 2V7.18H44.0044C44.2977 6.47333 44.751 5.94 45.3644 5.58C45.991 5.20667 46.6977 5.02 47.4844 5.02C48.271 5.02 48.9177 5.16667 49.4244 5.46C49.931 5.75333 50.311 6.2 50.5644 6.8C50.8177 7.38667 50.9444 8.13333 50.9444 9.04V13.88C50.9444 14.2933 50.8377 14.6133 50.6244 14.84C50.411 15.0533 50.1044 15.16 49.7044 15.16C49.3044 15.16 48.991 15.0533 48.7644 14.84C48.551 14.6133 48.4444 14.2933 48.4444 13.88V9.16C48.4444 8.4 48.2977 7.84667 48.0044 7.5C47.7244 7.15333 47.2844 6.98 46.6844 6.98C45.951 6.98 45.3644 7.21333 44.9244 7.68C44.4977 8.13333 44.2844 8.74 44.2844 9.5V13.88C44.2844 14.7333 43.8644 15.16 43.0244 15.16ZM56.7036 15.2C55.9969 15.2 55.3636 15.0667 54.8036 14.8C54.2569 14.52 53.8236 14.1467 53.5036 13.68C53.1969 13.2133 53.0436 12.6867 53.0436 12.1C53.0436 11.38 53.2303 10.8133 53.6036 10.4C53.9769 9.97333 54.5836 9.66667 55.4236 9.48C56.2636 9.29333 57.3903 9.2 58.8036 9.2H59.8036V10.64H58.8236C57.9969 10.64 57.3369 10.68 56.8436 10.76C56.3503 10.84 55.9969 10.98 55.7836 11.18C55.5836 11.3667 55.4836 11.6333 55.4836 11.98C55.4836 12.42 55.6369 12.78 55.9436 13.06C56.2503 13.34 56.6769 13.48 57.2236 13.48C57.6636 13.48 58.0503 13.38 58.3836 13.18C58.7303 12.9667 59.0036 12.68 59.2036 12.32C59.4036 11.96 59.5036 11.5467 59.5036 11.08V8.78C59.5036 8.11333 59.3569 7.63333 59.0636 7.34C58.7703 7.04667 58.2769 6.9 57.5836 6.9C57.1969 6.9 56.7769 6.94667 56.3236 7.04C55.8836 7.13333 55.4169 7.29333 54.9236 7.52C54.6703 7.64 54.4436 7.67333 54.2436 7.62C54.0569 7.56667 53.9103 7.46 53.8036 7.3C53.6969 7.12667 53.6436 6.94 53.6436 6.74C53.6436 6.54 53.6969 6.34667 53.8036 6.16C53.9103 5.96 54.0903 5.81333 54.3436 5.72C54.9569 5.46667 55.5436 5.28667 56.1036 5.18C56.6769 5.07333 57.1969 5.02 57.6636 5.02C58.6236 5.02 59.4103 5.16667 60.0236 5.46C60.6503 5.75333 61.1169 6.2 61.4236 6.8C61.7303 7.38667 61.8836 8.14667 61.8836 9.08V13.88C61.8836 14.2933 61.7836 14.6133 61.5836 14.84C61.3836 15.0533 61.0969 15.16 60.7236 15.16C60.3503 15.16 60.0569 15.0533 59.8436 14.84C59.6436 14.6133 59.5436 14.2933 59.5436 13.88V12.92H59.7036C59.6103 13.3867 59.4236 13.7933 59.1436 14.14C58.8769 14.4733 58.5369 14.7333 58.1236 14.92C57.7103 15.1067 57.2369 15.2 56.7036 15.2ZM68.9011 15.2C68.0344 15.2 67.3078 15.0533 66.7211 14.76C66.1478 14.4667 65.7211 14.04 65.4411 13.48C65.1611 12.9067 65.0211 12.2 65.0211 11.36V7.1H63.9811C63.6611 7.1 63.4144 7.02 63.2411 6.86C63.0678 6.68667 62.9811 6.45333 62.9811 6.16C62.9811 5.85333 63.0678 5.62 63.2411 5.46C63.4144 5.3 63.6611 5.22 63.9811 5.22H65.0211V3.4C65.0211 2.98667 65.1278 2.67333 65.3411 2.46C65.5678 2.24667 65.8811 2.14 66.2811 2.14C66.6811 2.14 66.9878 2.24667 67.2011 2.46C67.4144 2.67333 67.5211 2.98667 67.5211 3.4V5.22H69.6411C69.9611 5.22 70.2078 5.3 70.3811 5.46C70.5544 5.62 70.6411 5.85333 70.6411 6.16C70.6411 6.45333 70.5544 6.68667 70.3811 6.86C70.2078 7.02 69.9611 7.1 69.6411 7.1H67.5211V11.22C67.5211 11.86 67.6611 12.34 67.9411 12.66C68.2211 12.98 68.6744 13.14 69.3011 13.14C69.5278 13.14 69.7278 13.12 69.9011 13.08C70.0744 13.04 70.2278 13.0133 70.3611 13C70.5211 12.9867 70.6544 13.04 70.7611 13.16C70.8678 13.2667 70.9211 13.4933 70.9211 13.84C70.9211 14.1067 70.8744 14.3467 70.7811 14.56C70.7011 14.76 70.5478 14.9 70.3211 14.98C70.1478 15.0333 69.9211 15.08 69.6411 15.12C69.3611 15.1733 69.1144 15.2 68.9011 15.2Z" fill="white"/>
</svg>
