<?xml version="1.0" standalone="no"?>
<!DOCTYPE svg PUBLIC "-//W3C//DTD SVG 20010904//EN"
 "http://www.w3.org/TR/2001/REC-SVG-20010904/DTD/svg10.dtd">
<svg version="1.0" xmlns="http://www.w3.org/2000/svg"
 width="512.000000pt" height="512.000000pt" viewBox="0 0 512.000000 512.000000"
 preserveAspectRatio="xMidYMid meet">
<metadata>
Created by potrace 1.14, written by Peter Selinger 2001-2017
</metadata>
<g transform="translate(0.000000,512.000000) scale(0.100000,-0.100000)"
fill="#000000" stroke="none">
<path d="M430 5110 c-195 -34 -338 -161 -406 -360 -18 -53 -19 -123 -19 -2190
0 -2067 1 -2137 19 -2190 33 -96 67 -153 130 -216 63 -63 120 -97 216 -130 53
-18 123 -19 2190 -19 2067 0 2137 1 2190 19 96 33 153 67 216 130 63 63 97
120 130 216 18 53 19 123 19 2190 0 2067 -1 2137 -19 2190 -33 96 -67 153
-130 216 -63 62 -107 90 -206 128 l-55 21 -2115 1 c-1163 1 -2135 -2 -2160 -6z
m3660 -1521 c216 -42 415 -158 456 -265 14 -38 15 -51 5 -85 -25 -82 -92 -125
-170 -108 -18 4 -63 28 -100 53 -129 88 -256 126 -426 126 -192 0 -327 -50
-441 -164 -123 -123 -180 -279 -191 -522 -17 -380 99 -648 327 -756 107 -51
166 -63 310 -62 179 1 286 33 431 130 88 59 145 68 199 32 64 -43 87 -124 54
-194 -38 -79 -234 -194 -409 -240 -204 -53 -471 -42 -659 27 -245 89 -437 290
-528 549 -78 223 -89 568 -26 805 76 286 231 483 473 601 202 98 441 123 695
73z m-3291 0 c20 -11 44 -31 54 -44 13 -18 388 -721 699 -1308 8 -16 72 99
350 625 187 353 349 658 361 676 62 95 215 94 273 -1 18 -31 19 -65 19 -977 0
-927 0 -946 -20 -979 -33 -55 -68 -75 -129 -75 -63 1 -115 28 -137 71 -11 23
-15 144 -19 684 l-5 656 -279 -524 c-279 -524 -305 -565 -362 -579 -38 -10
-104 2 -133 24 -17 12 -130 211 -311 548 l-285 529 -5 -660 c-3 -363 -7 -661
-8 -662 -1 -1 -16 -18 -33 -38 -82 -93 -233 -54 -259 69 -8 36 -10 328 -8 966
3 894 3 916 23 949 40 68 141 92 214 50z"/>
</g>
</svg>
